<svg xmlns="http://www.w3.org/2000/svg" viewBox="0 0 260 103"><defs><style>.cls-1{fill:#fff;}.cls-2{fill:#222;}.cls-3{fill:#3fb195;}</style></defs><g id="圖層_2" data-name="圖層 2"><g id="圖層_1-2" data-name="圖層 1"><rect class="cls-1" width="260" height="103"/><path class="cls-2" d="M68.65,58.75l5.52-25.28H86.4l1.5-7.17H54.82l-1.5,7.17H65.56L60,58.75Z"/><path class="cls-2" d="M83.65,63.14h8.61l3.09-11.26h7.31l4.87,14.54h9.2l-5.61-15.51a14,14,0,0,0,10.11-13.24c0-6.67-5.24-11.37-12.8-11.37H92.26ZM99.46,33.08h7c3.79,0,6,2,6,5.34,0,4.12-3.34,7-8.35,7H96.68Z"/><path class="cls-2" d="M147.23,66.42H156l-5.3-40.12h-9.88L117.64,66.42h8.92l5.27-9.56h14.41Zm-3.57-31.75h.54l1.64,15.71H135.05Z"/><path class="cls-2" d="M177.22,66.42,199.51,26.3h-9.63L174.19,56.91h-.51L170.82,26.3h-9.09l5.16,40.12Z"/><path class="cls-2" d="M223.21,59.25H204.72l2.21-9.76h17.42l1.41-6.65H208.32l2.12-9.37H228.9l1.51-7.17H203.33l-8.69,40.12h27.1Z"/><path class="cls-2" d="M243.68,59.11h-6l7.16-32.81h-8.58l-8.69,40.12h8.69Z"/><path class="cls-3" d="M23.69,61.51c-.48.18-.94.35-1.37.53.42-.18.88-.36,1.37-.53C38.25,56.15,76.6,50.3,125,66.42c50,16.66,110.84-3.28,135-15.34-21.95,18.63-79.67,50-135,26.3C71.72,54.61,36.24,57.06,23.69,61.51Z"/><path class="cls-3" d="M39.51.51A5.64,5.64,0,0,1,41.09,0h.39a1.72,1.72,0,0,1,1.31.77l1.58,2.05c.13.38,1.05.76,1.58.76l4.59,1.54a2,2,0,0,1,1.31.77L53.3,8.32c.52.13.13.77,0,1.15l-2.89,2.94c-.26.26-.53,1-.92,1.41L49,16.38v1.79l.53,1.16A3.14,3.14,0,0,1,50,21.12l.14.76a8.39,8.39,0,0,1-.14,1.8l-1.44,3.2a16.54,16.54,0,0,0-.79,1.53l-3,7.42a3.43,3.43,0,0,0-.39,1.92,6.08,6.08,0,0,1,0,1.54c-.79,4.74-2.89,16.25-3.28,17.28l-2.36,6.65A4.17,4.17,0,0,0,38.07,65c-.39,1.41-.13,1.8-.92,2.82l-4.46,7.29a3.06,3.06,0,0,1-1,1.16L28.22,80c-.13.38-.65.89-.78,1.41l-3.15,7.8a7.81,7.81,0,0,0-.14,1.67v8.19a6.22,6.22,0,0,1-.39,1.66l-.52,1.79a.93.93,0,0,1-1.19.39l-1.57-.77c-.26-.26-1.05-.51-1.45-1l-.65-.39a6.22,6.22,0,0,1-.4-1.66l.4-2.18a7.15,7.15,0,0,0-.13-1.66l-1.84-3.84a3.07,3.07,0,0,0-1.18-1.54l-3.94-3.45a2.4,2.4,0,0,0-1.71-.64H9.45a1.79,1.79,0,0,1-1.31-.9l-2.89-4c-.26-.38-.39-1-.66-1.53l-.78-2.82c0-.38-.27-1.28-.27-1.66V71.93c0-.52-.13-1-.65-1.16L.66,69C.13,68.85,0,68,0,67.57l.13-1.4c0-.52.4-1.16.4-1.67l.39-2c0-.38.52-1,.52-1.4l.4-.26c.39-.51.65-1,.39-1.53l-.39-8.71a2,2,0,0,1,.39-1.41L17.46,23a6.7,6.7,0,0,1,1.18-1.54l3.41-3.84a5.38,5.38,0,0,0,1.19-1.28L27,8.06a2,2,0,0,1,1.18-.89l3.94-1.41a7,7,0,0,1,2-.64l2.36-.38c.53-.26,1-.77,1-1.16a3.08,3.08,0,0,1,.53-1.66Z"/></g></g></svg>