<svg xmlns="http://www.w3.org/2000/svg" viewBox="0 0 21 18"><defs><style>.cls-1{fill:#3fb195;}</style></defs><g id="圖層_2" data-name="圖層 2"><g id="圖層_1-2" data-name="圖層 1"><path class="cls-1" d="M21,3H17.92a3.75,3.75,0,0,0-7.35,0H0V4.5H10.57a3.75,3.75,0,0,0,7.35,0H21ZM14.25,6A2.21,2.21,0,0,1,12,3.75a2.25,2.25,0,0,1,4.5,0A2.21,2.21,0,0,1,14.25,6Z"/><path class="cls-1" d="M0,15H3.07a3.76,3.76,0,0,0,7.36,0H21V13.5H10.43a3.76,3.76,0,0,0-7.36,0H0Zm6.75-3a2.25,2.25,0,0,1,0,4.5,2.25,2.25,0,0,1,0-4.5Z"/></g></g></svg>