<svg xmlns="http://www.w3.org/2000/svg" viewBox="0 0 19.22 37.6"><defs><style>.cls-1{fill:#3fb195;}</style></defs><g id="圖層_2" data-name="圖層 2"><g id="圖層_1-2" data-name="圖層 1"><path class="cls-1" d="M18.8,12.41h-5L16.5.33,15,0,12.22,12.41H.47a.47.47,0,0,0-.47.47.51.51,0,0,0,.47.47h.85l.18,6.34.9,3.11L3,37.18a.46.46,0,0,0,.47.42H15.84a.47.47,0,0,0,.47-.42l.61-14.38.85-3.11.28-6.34h.75a.47.47,0,0,0,.42-.47A.44.44,0,0,0,18.8,12.41ZM12,13.35,11,18a3.21,3.21,0,0,1-1.18-.37,3.52,3.52,0,0,0-1.74-.43,3.35,3.35,0,0,0-1.73.43A2.44,2.44,0,0,1,5,18a2.32,2.32,0,0,1-1.31-.37,3.61,3.61,0,0,0-1.27-.38l-.14-3.9ZM16.92,18a1.94,1.94,0,0,1-.85-.32,3.74,3.74,0,0,0-1.78-.43,3.45,3.45,0,0,0-1.6.38l.94-4.23h3.43ZM16,22.42l-.61,14.24H4L3.34,22.42l-.9-3.1,0-1.13a2,2,0,0,1,.84.28A3.16,3.16,0,0,0,5,18.85a2.91,2.91,0,0,0,1.74-.38,2.64,2.64,0,0,1,1.36-.33,2.52,2.52,0,0,1,1.37.33,3.17,3.17,0,0,0,1.78.38A3.23,3.23,0,0,0,13,18.47a2.33,2.33,0,0,1,1.32-.33,2.61,2.61,0,0,1,1.36.33,2.7,2.7,0,0,0,1.22.38v.47ZM6,28.2a1.36,1.36,0,0,0,1.36-1.36A1.33,1.33,0,0,0,6,25.52a1.35,1.35,0,0,0-1.36,1.32A1.39,1.39,0,0,0,6,28.2ZM13.11,26a1.29,1.29,0,0,0-1.36,1.31,1.34,1.34,0,1,0,2.68,0A1.29,1.29,0,0,0,13.11,26Zm-3.8,4.37a1.34,1.34,0,0,0,1.36-1.36,1.36,1.36,0,0,0-1.36-1.32A1.38,1.38,0,0,0,8,29.05,1.35,1.35,0,0,0,9.31,30.41ZM5.88,32.1a1.39,1.39,0,0,0,1.36-1.31,1.41,1.41,0,0,0-1.36-1.41,1.37,1.37,0,0,0-1.37,1.41A1.35,1.35,0,0,0,5.88,32.1Zm7,.19a1.37,1.37,0,1,0-1.32-1.36A1.37,1.37,0,0,0,12.83,32.29Zm-3.34-.75a1.32,1.32,0,0,0,0,2.63,1.32,1.32,0,1,0,0-2.63ZM6.25,33.28a1.42,1.42,0,0,0-1.36,1.36A1.39,1.39,0,0,0,6.25,36a1.36,1.36,0,0,0,1.36-1.36A1.39,1.39,0,0,0,6.25,33.28Zm6.86,0a1.34,1.34,0,1,0,1.32,1.32A1.32,1.32,0,0,0,13.11,33.32Z"/></g></g></svg>