<svg xmlns="http://www.w3.org/2000/svg" viewBox="0 0 14 20"><defs><style>.cls-1,.cls-2{fill:#c499ff;}.cls-1{fill-rule:evenodd;}.cls-2{isolation:isolate;opacity:0.4;}</style></defs><g id="圖層_2" data-name="圖層 2"><g id="圖層_1-2" data-name="圖層 1"><path class="cls-1" d="M3.53.94a6.89,6.89,0,0,1,7,.06A7.32,7.32,0,0,1,14,7.26,10.61,10.61,0,0,1,10.81,14a19.26,19.26,0,0,1-3.36,2.82A1.25,1.25,0,0,1,7,17a.89.89,0,0,1-.39-.12,18.38,18.38,0,0,1-4.84-4.55A9.31,9.31,0,0,1,0,7.13,7.16,7.16,0,0,1,3.53.94ZM4.79,8.2A2.39,2.39,0,0,0,7,9.69,2.31,2.31,0,0,0,8.67,9,2.44,2.44,0,0,0,7.91,5a2.35,2.35,0,0,0-2.6.51A2.49,2.49,0,0,0,4.79,8.2Z"/><ellipse class="cls-2" cx="7" cy="19" rx="5" ry="1"/></g></g></svg>