<svg xmlns="http://www.w3.org/2000/svg" viewBox="0 0 54.57 33.53"><defs><style>.cls-1{fill:#3fb195;}</style></defs><g id="圖層_2" data-name="圖層 2"><g id="圖層_1-2" data-name="圖層 1"><path class="cls-1" d="M54.57,21.26a10.59,10.59,0,0,0-17-5.83l-2.06-2.2L36.85,9h1.36c.61,0,1.69-.57,1.69-1.46s-.84-1.6-2-1.6-3.19,1.13-5.12,1.13S30.5,7.68,30.5,8.2s.33.8.94.8h3.9l-4,12.73h-.37A3.3,3.3,0,0,0,27.87,24a6,6,0,0,1-1.27-1.46,35.78,35.78,0,0,1-2.68-4.6c-.8-1.41-1.5-2.78-2.21-3.86a8.79,8.79,0,0,0-4.13-3.57,8.91,8.91,0,0,0-2.4-.52l1.41-5.92a.62.62,0,0,0-.05-.52L15.23,1.43h4A.69.69,0,0,0,20,.72a.69.69,0,0,0-.7-.7H14.15a.66.66,0,0,0-.52.09.74.74,0,0,0-.24,1L15.18,4l-1.55,6.35a.39.39,0,0,0-.05.23L13.25,12a11.41,11.41,0,0,0-2.86-.33.69.69,0,0,0-.71.7.73.73,0,0,0,.71.71,10.86,10.86,0,0,1,2.49.28l-.14.66A10.54,10.54,0,0,0,10,13.6a10,10,0,1,0,4.09.89l.19-.7a10.05,10.05,0,0,1,6.21,9.26.69.69,0,0,0,.7.7.72.72,0,0,0,.71-.7A11.42,11.42,0,0,0,18.47,15a12.11,12.11,0,0,0-3.9-2.58l.28-1a6.7,6.7,0,0,1,2.21.47,7.84,7.84,0,0,1,3.48,3c.66,1,1.36,2.4,2.11,3.76,1.7,3.15,3.29,6.16,5.13,7a2.81,2.81,0,0,0,.47,1.12l-2.54,2.54H24.35a.69.69,0,0,0-.71.71.66.66,0,0,0,.71.7H28.2a.66.66,0,0,0,.7-.7.69.69,0,0,0-.7-.71h-.52l1.55-1.5a3.15,3.15,0,0,0,1.74.52,3.24,3.24,0,0,0,2.78-1.56l1-.14a10,10,0,0,0,19.46-3A8.21,8.21,0,0,0,54,21.4,2,2,0,0,0,54.57,21.26ZM7.38,9.37a1.65,1.65,0,0,0,1.55,1.32h2.49A1.7,1.7,0,0,0,13,9.37l1-4.46a1,1,0,0,0-1-1.27H7.94A1.12,1.12,0,0,0,6.77,5ZM35,14.73l1.55,1.64A10.64,10.64,0,0,0,34,21.17a1.59,1.59,0,0,0,.52.47c0,.05,0,.05,0,.09H32.76ZM9.49,21.36l-.23.09L6.35,16.33a8.8,8.8,0,0,1,3.14-.85Zm2.35-3.72-1.41,3.29V15.48a8.31,8.31,0,0,1,1.88.33ZM5.5,16.8l3,5.12-.14.14L3.2,19.15A8.44,8.44,0,0,1,5.5,16.8Zm11.23,2.35-5.07,2.91L11.52,22l.28-.61,2.63-4.56A8.44,8.44,0,0,1,16.73,19.15ZM45.87,22l2.21-3.8h.14A3.88,3.88,0,0,1,51,19.43L46.06,22.2C46,22.16,46,22.06,45.87,22Zm-.8-.51-.33-.14v-.1a3.69,3.69,0,0,0,.38-.56,6.9,6.9,0,0,1,1.55-2ZM2.73,20l5.12,2.91c0,.09,0,.19-.09.24H1.88A8.6,8.6,0,0,1,2.73,20ZM18.05,23.1H12.17a.43.43,0,0,1,0-.24L17.2,20A7.88,7.88,0,0,1,18.05,23.1Zm28.48.23a.47.47,0,0,1-.05-.23l5-2.92a1.8,1.8,0,0,1,.24.42A1.85,1.85,0,0,0,52,21a7.2,7.2,0,0,1,.38,2.3ZM1.88,24H7.76l.09.23L2.73,27.18A8.6,8.6,0,0,1,1.88,24ZM17.2,27.18l-5.07-2.91a.47.47,0,0,1,0-.23h5.88A7.88,7.88,0,0,1,17.2,27.18Zm34.22.19-5.08-2.91c0-.1,0-.14.1-.19h5.92A7.74,7.74,0,0,1,51.42,27.37ZM3.2,28l5.12-3,.14.19-3,5.07A9,9,0,0,1,3.2,28Zm11.23,2.3-3-5.07c0-.05.09-.14.19-.19l5.07,3A9,9,0,0,1,14.43,30.33Zm34.22.05-3-5.08.15-.09,5.12,3A7.93,7.93,0,0,1,48.65,30.38Zm-11-2.21,4.51-2.58.61-.1L40,30.38A7.36,7.36,0,0,1,37.65,28.17ZM9.49,25.77v5.88a7.88,7.88,0,0,1-3.14-.85l2.91-5.07C9.35,25.73,9.4,25.77,9.49,25.77Zm.94,0c.1,0,.14,0,.24,0l2.91,5.07a7.88,7.88,0,0,1-3.15.85Zm33.37,0v5.88a7.58,7.58,0,0,1-3-.8l3-5.12A.16.16,0,0,0,43.8,25.77Zm.94,0s.1,0,.14,0l2.92,5.12a7.22,7.22,0,0,1-3.06.8Zm-5,.15-2.59,1.45a7,7,0,0,1-.47-1.08Z"/></g></g></svg>