<svg xmlns="http://www.w3.org/2000/svg" viewBox="0 0 25.1 28.72"><defs><style>.cls-1{fill:#3fb195;}</style></defs><g id="圖層_2" data-name="圖層 2"><g id="圖層_1-2" data-name="圖層 1"><path class="cls-1" d="M24.52,7.66a63.59,63.59,0,0,0-4.19-5.5A4,4,0,0,0,18.22.7c-2.87-.61-3-.7-4-.7a18.14,18.14,0,0,0-3.81.56L4.59,2A3,3,0,0,0,2.71,3.43L.26,8.22a3.93,3.93,0,0,0-.09,2.54l6,15.47c.47,1.27,1.41,2.49,5.92,2.49s8.13-1.18,8.55-2.54L25,10.2A3.31,3.31,0,0,0,24.52,7.66ZM12.44,27.78c-2.26,0-4.56-.61-4.56-1.46,0-.61,3-2,6.63-2,3,0,4.79,1.17,4.79,1.6C19.3,26.7,15.87,27.78,12.44,27.78Z"/></g></g></svg>