<svg xmlns="http://www.w3.org/2000/svg" viewBox="0 0 19 19"><defs><style>.cls-1,.cls-2{fill:#3fb195;}.cls-1{isolation:isolate;opacity:0.4;}.cls-2{fill-rule:evenodd;}</style></defs><g id="圖層_2" data-name="圖層 2"><g id="圖層_1-2" data-name="圖層 1"><path class="cls-1" d="M11.42,3.49a.86.86,0,0,0-1,.68.87.87,0,0,0,.68,1,3.44,3.44,0,0,1,2.74,2.75h0a.88.88,0,0,0,.85.7l.16,0a.86.86,0,0,0,.68-1A5.19,5.19,0,0,0,11.42,3.49Z"/><path class="cls-1" d="M11.36,0a.83.83,0,0,0-.63.17.87.87,0,0,0-.32.59.85.85,0,0,0,.75,1,6.9,6.9,0,0,1,6.13,6.14.86.86,0,0,0,.85.76h.1a.8.8,0,0,0,.57-.31A.82.82,0,0,0,19,7.66,8.61,8.61,0,0,0,11.36,0Z"/><path class="cls-2" d="M8.56,10.45c3.78,3.78,4.63-.6,7,1.81S19.25,15,16.31,18c-.37.3-2.7,3.86-10.93-4.36S.72,3.06,1,2.69C4-.26,4.42,1.08,6.74,3.4S4.78,6.67,8.56,10.45Z"/></g></g></svg>