<svg xmlns="http://www.w3.org/2000/svg" viewBox="0 0 20.01 18"><defs><style>.cls-1{fill:#3fb195;}</style></defs><g id="圖層_2" data-name="圖層 2"><g id="圖層_1-2" data-name="圖層 1"><path class="cls-1" d="M16,14.5v1.25A2.25,2.25,0,0,1,13.75,18H6.25A2.25,2.25,0,0,1,4,15.75V14.5H2.25A2.25,2.25,0,0,1,0,12.25v-6A3.23,3.23,0,0,1,1,4a3.26,3.26,0,0,1,2.3-1H4V2.25A2.25,2.25,0,0,1,6.25,0h7.5A2.25,2.25,0,0,1,16,2.25V3h.75a3.26,3.26,0,0,1,2.3,1A3.23,3.23,0,0,1,20,6.25v6a2.31,2.31,0,0,1-.17.86,2.28,2.28,0,0,1-1.22,1.22,2.31,2.31,0,0,1-.86.17Zm-2.25-4H6.25a.75.75,0,0,0-.75.75v4.5a.76.76,0,0,0,.75.75h7.5a.75.75,0,0,0,.75-.75v-4.5a.75.75,0,0,0-.75-.75Zm0-9H6.25a.75.75,0,0,0-.75.75V3h9V2.25a.75.75,0,0,0-.75-.75Z"/></g></g></svg>