<svg xmlns="http://www.w3.org/2000/svg" viewBox="0 0 54.85 23.5"><defs><style>.cls-1{fill:#3fb195;}</style></defs><g id="圖層_2" data-name="圖層 2"><g id="圖層_1-2" data-name="圖層 1"><path class="cls-1" d="M12.27,6.53l.19.71A13,13,0,0,0,17,8H37.79a13,13,0,0,0,4.51-.8l.24-.71c-4.09.71-5.13-3.76-5.17-3.9L38.26,0h-.89c-.94.47-3,2.4-10,2.4s-9-1.93-10-2.4H16.5l.89,2.63C17.39,2.77,16.36,7.24,12.27,6.53ZM27.4,1.88A.84.84,0,0,0,28.2,1a.82.82,0,0,0-1.64,0A.84.84,0,0,0,27.4,1.88Zm20.4,6a2.6,2.6,0,0,1-3.29-2.64l.33-1.74H43.9c-.61.8-.1,1.09-4.42,1.23a2.91,2.91,0,0,0,2.26.89c.7,0,1.31-.19,1.59.09s.29.61,0,1.84a.53.53,0,0,1-.33.37,15.52,15.52,0,0,1-4.14,1v1h6.63A3.68,3.68,0,0,0,47.8,8.84Zm-40.75,0v.94A3.63,3.63,0,0,0,9.4,10H16V9a15.52,15.52,0,0,1-4.14-1,.52.52,0,0,1-.33-.38c-.33-1.22-.19-1.69-.05-1.83.29-.28.9-.09,1.6-.09a2.88,2.88,0,0,0,2.26-.9C11,4.65,11.56,4.37,11,3.57H10l.33,1.74A2.6,2.6,0,0,1,7.05,7.94Zm39.34,3.72h8.46v-.94a21.61,21.61,0,0,1-3.39-3.34H48.41a1.07,1.07,0,0,1,.33.89v.57a1,1,0,0,1-.19.65,4,4,0,0,1-2.16,1.23Zm-37.93,0v-.94A3.89,3.89,0,0,1,6.3,9.54a1,1,0,0,1-.19-.66V8.32a1,1,0,0,1,.33-.89H3.38A21,21,0,0,1,0,10.76v.94Zm29.33,9V9H17v11.7h2V12.13H22v8.55h3.38V12.13h4v8.55h3.43V12.13h3v8.55Zm-7.24-9.49h-6.3V9.92h6.3ZM16,20.68V11H9.4v9.73h1.93V12.6h2.25v8.08Zm29.32,0V11H38.73v9.73h2.54V12.6h2.16v8.08Zm-36.89,0v-8H2v8Zm37.83,0h6.49v-8H46.29ZM2,21.62V23.5H52.78V21.62Z"/></g></g></svg>