<svg xmlns="http://www.w3.org/2000/svg" viewBox="0 0 18 18.78"><defs><style>.cls-1{fill:#3fb195;}</style></defs><g id="圖層_2" data-name="圖層 2"><g id="圖層_1-2" data-name="圖層 1"><path class="cls-1" d="M14.94,13a2.92,2.92,0,0,0-2.1.9L5.73,10.3a2.7,2.7,0,0,0,0-1.64L12.85,5A3,3,0,0,0,18,3.5a3,3,0,0,0-.41-2.11,3,3,0,0,0-5.32,2.66l-7,3.59a2.87,2.87,0,0,0-3.23-.9A2.92,2.92,0,0,0,.53,7.8a2.93,2.93,0,0,0,0,3.36,2.92,2.92,0,0,0,4.64.17l7,3.54a2.8,2.8,0,0,0-.18,1,2.93,2.93,0,0,0,1.8,2.7,2.85,2.85,0,0,0,1.68.16,2.9,2.9,0,0,0,2.29-2.29A2.91,2.91,0,0,0,14.94,13Z"/></g></g></svg>