<svg xmlns="http://www.w3.org/2000/svg" viewBox="0 0 18.14 28.72"><defs><style>.cls-1{fill:#3fb195;}</style></defs><g id="圖層_2" data-name="圖層 2"><g id="圖層_1-2" data-name="圖層 1"><path class="cls-1" d="M9.07,0A9.07,9.07,0,0,0,0,9.4C0,13.63,3.1,18.52,6.06,22l.47,2.67.24,4h4.6l.24-4L12.08,22c3-3.48,6.06-8.37,6.06-12.6A9.07,9.07,0,0,0,9.07,0Zm0,.94c1.36,1.41,2,5.08,2,8.46a62.79,62.79,0,0,1-1.5,11.66h-1A62.79,62.79,0,0,1,7.05,9.4C7.05,6,7.71,2.35,9.07.94ZM1.13,9.4A8.29,8.29,0,0,1,6.77,1.18C4.93,2.87,3.71,5.31,3.71,9.4S5.5,17.48,7.19,21.06h-.8C4.14,17.91,1.13,13.44,1.13,9.4ZM11.75,21.06H11c1.69-3.58,3.48-7.52,3.48-11.66s-1.22-6.53-3.06-8.22A8.29,8.29,0,0,1,17,9.4C17,13.44,14,17.91,11.75,21.06Zm-1.08,3.61H7.47L7,22h4.14Z"/></g></g></svg>