<svg xmlns="http://www.w3.org/2000/svg" viewBox="0 0 47.56 33.18"><defs><style>.cls-1{fill:#3fb195;}</style></defs><g id="圖層_2" data-name="圖層 2"><g id="圖層_1-2" data-name="圖層 1"><path class="cls-1" d="M2.3,4.79h43c.09,0,.14,0,.14-.09V4c0-.05,0-.1-.14-.1-1.5,0-3-2-3-3.76,0,0,0-.09-.14-.09H5.45a.13.13,0,0,0-.14.14c0,1.79-1.5,3.71-3,3.71A.13.13,0,0,0,2.16,4v.66A.12.12,0,0,0,2.3,4.79ZM47.42,8c-1.69,0-3.05-.66-3.05-2.16,0-.1,0-.15-.14-.15H3.15C3.15,7.33,1.83,8,.14,8,.05,8,0,8.13,0,8.23v.61A.16.16,0,0,0,.14,9H47.42a.15.15,0,0,0,.14-.14V8.23C47.56,8.13,47.52,8,47.42,8ZM43.8,9.87H3.71s-.09.09-.09.14v21.1c0,.05,0,.15.09.15h8.18v-.94h1.65V28.67H10.15V26.09A1.28,1.28,0,0,1,10.76,25V22.14h-.61V19.55a1.39,1.39,0,0,1,2.77,0v2c.71-.14,1.18-.51,1.18-1.22V20h.56v-.47a1.36,1.36,0,0,1,1.41-1.31,1.32,1.32,0,0,1,1.37,1.31V20h2.11V18.56h8.37V20h2.21v-.47a1.32,1.32,0,0,1,1.36-1.31,1.36,1.36,0,0,1,1.41,1.31V20h.56v.28a1.32,1.32,0,0,0,1.18,1.32V19.55a1.39,1.39,0,0,1,2.77,0v2.59h-.89v2.72a1.31,1.31,0,0,1,.89,1.23v2.58H34v1.65h1.55v.94H43.8c.05,0,.1-.05.14-.05V10A.14.14,0,0,0,43.8,9.87ZM8.37,15.7H5.59V13.11A1.4,1.4,0,0,1,7,11.8a1.36,1.36,0,0,1,1.37,1.31Zm4.55,0H10.15V13.11a1.39,1.39,0,0,1,2.77,0Zm4.52,0H14.66V13.11a1.4,1.4,0,0,1,1.41-1.31,1.35,1.35,0,0,1,1.37,1.31Zm15.46,0H30.13V13.11a1.35,1.35,0,0,1,1.36-1.31,1.4,1.4,0,0,1,1.41,1.31Zm4.51,0H34.64V13.11a1.39,1.39,0,0,1,2.77,0Zm4.51,0H39.15V13.11a1.4,1.4,0,0,1,1.41-1.31,1.35,1.35,0,0,1,1.36,1.31Zm-14,0H19.55V12.08h8.37ZM8.37,22.14H5.59V19.55A1.4,1.4,0,0,1,7,18.24a1.36,1.36,0,0,1,1.37,1.31Zm33.55,0H39.15V19.55a1.4,1.4,0,0,1,1.41-1.31,1.35,1.35,0,0,1,1.36,1.31Zm-7.28,10v-.93H33.09v-5h2.72v-.94a2.59,2.59,0,0,1-2.58-1.64h2.58v-.94c-1.45,0-3.15-.57-3.15-2.07H14.9c0,1.5-1.74,2.07-3.2,2.07v.94h2.59a2.52,2.52,0,0,1-2.59,1.64v.94h2.78v5H12.83v.93H11.56v1H35.91v-1ZM8.37,28.67H5.59V26.09A1.4,1.4,0,0,1,7,24.77a1.36,1.36,0,0,1,1.37,1.32Zm33.55,0H39.15V26.09a1.4,1.4,0,0,1,1.41-1.32,1.35,1.35,0,0,1,1.36,1.32Zm-26,.52a2.12,2.12,0,1,1,4.23,0v2.07H15.93ZM23.78,27a2.11,2.11,0,0,1,2.12,2.16v2.07H21.67V29.19A2.11,2.11,0,0,1,23.78,27Zm5.74,0a2.11,2.11,0,0,1,2.11,2.16v2.07H27.4V29.19A2.11,2.11,0,0,1,29.52,27Z"/></g></g></svg>